<svg width="185" height="33" viewBox="0 0 185 33" fill="none" xmlns="http://www.w3.org/2000/svg">
<path d="M12.7649 15.8812C15.3404 15.1842 17.9159 14.4873 20.6745 13.7407C19.567 16.3427 18.5163 18.8105 17.4656 21.2783C17.3887 21.3242 17.3119 21.3684 17.2368 21.4143C16.7096 18.7645 15.3331 16.8723 12.6221 16.1736C12.6697 16.0761 12.7173 15.9786 12.7649 15.8812Z" fill="#ED6774"/>
<path d="M32.3533 16.6554C32.3533 23.4518 26.8691 28.963 20.1035 28.963V23.827C24.0446 23.827 27.2407 20.6163 27.2407 16.6554C27.2407 12.6963 24.0446 9.48559 20.1035 9.48559V4.34961C26.8691 4.34961 32.3533 9.85888 32.3533 16.6554Z" fill="#1D9BF0"/>
<path d="M6.88902 16.6552C6.88902 21.8262 11.0626 26.0169 16.2082 26.0169V32.7215C7.37594 32.7215 0.216797 25.5278 0.216797 16.6552C0.216797 7.78266 7.37594 0.59082 16.2082 0.59082V7.29536C11.0626 7.29536 6.88902 11.4862 6.88902 16.6552Z" fill="#00D1FF"/>
<path d="M54.2125 20.6062C53.8958 21.6729 53.3958 22.5646 52.7125 23.2812C52.0292 23.9979 51.2208 24.5312 50.2875 24.8812C49.3542 25.2313 48.3292 25.4063 47.2125 25.4063C45.5792 25.4063 44.1625 25.0646 42.9625 24.3812C41.7792 23.6979 40.8625 22.7229 40.2125 21.4562C39.5792 20.1896 39.2625 18.6729 39.2625 16.9062C39.2625 15.1396 39.5792 13.6229 40.2125 12.3562C40.8625 11.0896 41.7792 10.1146 42.9625 9.43125C44.1625 8.74792 45.5625 8.40625 47.1625 8.40625C48.2958 8.40625 49.3208 8.56458 50.2375 8.88125C51.1542 9.18125 51.9292 9.64792 52.5625 10.2812C53.2125 10.9146 53.6875 11.7146 53.9875 12.6812L50.8625 14.0062C50.5792 13.0062 50.1458 12.2979 49.5625 11.8812C48.9792 11.4479 48.2292 11.2312 47.3125 11.2312C46.4125 11.2312 45.6208 11.4479 44.9375 11.8812C44.2708 12.3146 43.7542 12.9562 43.3875 13.8062C43.0208 14.6396 42.8375 15.6729 42.8375 16.9062C42.8375 18.1229 43.0042 19.1562 43.3375 20.0062C43.6875 20.8562 44.1958 21.4979 44.8625 21.9312C45.5292 22.3646 46.3458 22.5812 47.3125 22.5812C48.2125 22.5812 48.9875 22.3396 49.6375 21.8563C50.3042 21.3729 50.7708 20.6396 51.0375 19.6562L54.2125 20.6062ZM63.0529 17.1812C63.0529 16.4646 62.8446 15.9062 62.4279 15.5062C62.0279 15.1062 61.4946 14.9062 60.8279 14.9062C60.2113 14.9062 59.6696 15.0646 59.2029 15.3812C58.7363 15.6979 58.3946 16.2229 58.1779 16.9562L55.2529 16.0562C55.5363 14.9562 56.1529 14.0729 57.1029 13.4062C58.0696 12.7396 59.3613 12.4062 60.9779 12.4062C62.0779 12.4062 63.0363 12.5812 63.8529 12.9312C64.6696 13.2646 65.3029 13.7729 65.7529 14.4562C66.2196 15.1396 66.4529 15.9979 66.4529 17.0312V22.1062C66.4529 22.7396 66.7529 23.0562 67.3529 23.0562C67.6363 23.0562 67.9029 23.0146 68.1529 22.9312L67.9529 25.0562C67.5196 25.2729 66.9779 25.3813 66.3279 25.3813C65.7446 25.3813 65.2196 25.2813 64.7529 25.0812C64.2863 24.8812 63.9196 24.5812 63.6529 24.1812C63.3863 23.7646 63.2529 23.2479 63.2529 22.6312V22.5312L63.8529 22.4312C63.7529 23.0646 63.4779 23.6062 63.0279 24.0562C62.5779 24.4896 62.0279 24.8229 61.3779 25.0562C60.7446 25.2896 60.0863 25.4063 59.4029 25.4063C58.5529 25.4063 57.8196 25.2813 57.2029 25.0312C56.5863 24.7646 56.1113 24.3812 55.7779 23.8812C55.4446 23.3812 55.2779 22.7646 55.2779 22.0312C55.2779 21.0979 55.5779 20.3396 56.1779 19.7562C56.7779 19.1562 57.6363 18.7479 58.7529 18.5312L63.4529 17.5812L63.4279 19.7062L60.4279 20.3062C59.8613 20.4229 59.4279 20.5812 59.1279 20.7812C58.8446 20.9646 58.7029 21.2729 58.7029 21.7062C58.7029 22.1229 58.8529 22.4396 59.1529 22.6562C59.4696 22.8729 59.8446 22.9812 60.2779 22.9812C60.6279 22.9812 60.9696 22.9396 61.3029 22.8562C61.6363 22.7729 61.9363 22.6396 62.2029 22.4562C62.4696 22.2729 62.6779 22.0229 62.8279 21.7062C62.9779 21.3896 63.0529 21.0062 63.0529 20.5562V17.1812ZM69.4084 30.4063V12.6562H72.4834L72.7084 16.6312L72.2834 16.1812C72.4334 15.4479 72.7084 14.7979 73.1084 14.2312C73.5251 13.6646 74.0501 13.2229 74.6834 12.9062C75.3167 12.5729 76.0251 12.4062 76.8084 12.4062C77.8251 12.4062 78.7334 12.6646 79.5334 13.1812C80.3334 13.6979 80.9584 14.4396 81.4084 15.4062C81.8751 16.3562 82.1084 17.5146 82.1084 18.8812C82.1084 20.2479 81.8751 21.4229 81.4084 22.4062C80.9417 23.3729 80.3001 24.1146 79.4834 24.6312C78.6834 25.1479 77.7667 25.4063 76.7334 25.4063C75.6334 25.4063 74.7167 25.0979 73.9834 24.4812C73.2667 23.8646 72.7751 23.0896 72.5084 22.1562L72.8334 21.6312V30.4063H69.4084ZM75.7334 22.7812C76.6501 22.7812 77.3667 22.4562 77.8834 21.8062C78.4167 21.1396 78.6834 20.1729 78.6834 18.9062C78.6834 17.6396 78.4251 16.6812 77.9084 16.0312C77.4084 15.3646 76.7001 15.0312 75.7834 15.0312C75.2001 15.0312 74.6834 15.1896 74.2334 15.5062C73.8001 15.8062 73.4584 16.2479 73.2084 16.8312C72.9584 17.3979 72.8334 18.0896 72.8334 18.9062C72.8334 19.7062 72.9501 20.3979 73.1834 20.9812C73.4167 21.5646 73.7501 22.0146 74.1834 22.3312C74.6334 22.6312 75.1501 22.7812 75.7334 22.7812ZM85.9322 10.8562C85.2156 10.8562 84.6822 10.7062 84.3322 10.4062C83.9822 10.0896 83.8072 9.63125 83.8072 9.03125C83.8072 8.41458 83.9822 7.95625 84.3322 7.65625C84.6822 7.33958 85.2156 7.18125 85.9322 7.18125C86.6489 7.18125 87.1822 7.33958 87.5322 7.65625C87.8822 7.95625 88.0572 8.41458 88.0572 9.03125C88.0572 9.63125 87.8822 10.0896 87.5322 10.4062C87.1822 10.7062 86.6489 10.8562 85.9322 10.8562ZM87.6322 12.6562V25.1562H84.2072V12.6562H87.6322ZM94.8129 8.83125V21.0812C94.8129 21.6812 94.9629 22.1229 95.2629 22.4062C95.5796 22.6729 96.0046 22.8062 96.5379 22.8062C96.9546 22.8062 97.3212 22.7479 97.6379 22.6312C97.9546 22.4979 98.2379 22.3229 98.4879 22.1062L99.0379 24.3812C98.6379 24.6979 98.1379 24.9479 97.5379 25.1312C96.9379 25.3146 96.3046 25.4063 95.6379 25.4063C94.8046 25.4063 94.0629 25.2813 93.4129 25.0312C92.7796 24.7812 92.2796 24.3812 91.9129 23.8312C91.5629 23.2812 91.3879 22.5479 91.3879 21.6312V9.78125L94.8129 8.83125ZM98.8129 12.6562V15.2062H89.0879V12.6562H98.8129ZM107.502 17.1812C107.502 16.4646 107.294 15.9062 106.877 15.5062C106.477 15.1062 105.944 14.9062 105.277 14.9062C104.66 14.9062 104.119 15.0646 103.652 15.3812C103.185 15.6979 102.844 16.2229 102.627 16.9562L99.7021 16.0562C99.9855 14.9562 100.602 14.0729 101.552 13.4062C102.519 12.7396 103.81 12.4062 105.427 12.4062C106.527 12.4062 107.485 12.5812 108.302 12.9312C109.119 13.2646 109.752 13.7729 110.202 14.4562C110.669 15.1396 110.902 15.9979 110.902 17.0312V22.1062C110.902 22.7396 111.202 23.0562 111.802 23.0562C112.085 23.0562 112.352 23.0146 112.602 22.9312L112.402 25.0562C111.969 25.2729 111.427 25.3813 110.777 25.3813C110.194 25.3813 109.669 25.2813 109.202 25.0812C108.735 24.8812 108.369 24.5812 108.102 24.1812C107.835 23.7646 107.702 23.2479 107.702 22.6312V22.5312L108.302 22.4312C108.202 23.0646 107.927 23.6062 107.477 24.0562C107.027 24.4896 106.477 24.8229 105.827 25.0562C105.194 25.2896 104.535 25.4063 103.852 25.4063C103.002 25.4063 102.269 25.2813 101.652 25.0312C101.035 24.7646 100.56 24.3812 100.227 23.8812C99.8938 23.3812 99.7271 22.7646 99.7271 22.0312C99.7271 21.0979 100.027 20.3396 100.627 19.7562C101.227 19.1562 102.085 18.7479 103.202 18.5312L107.902 17.5812L107.877 19.7062L104.877 20.3062C104.31 20.4229 103.877 20.5812 103.577 20.7812C103.294 20.9646 103.152 21.2729 103.152 21.7062C103.152 22.1229 103.302 22.4396 103.602 22.6562C103.919 22.8729 104.294 22.9812 104.727 22.9812C105.077 22.9812 105.419 22.9396 105.752 22.8562C106.085 22.7729 106.385 22.6396 106.652 22.4562C106.919 22.2729 107.127 22.0229 107.277 21.7062C107.427 21.3896 107.502 21.0062 107.502 20.5562V17.1812ZM117.233 7.18125V21.3062C117.233 21.8896 117.333 22.2979 117.533 22.5312C117.733 22.7646 118.066 22.8812 118.533 22.8812C118.816 22.8812 119.049 22.8646 119.233 22.8312C119.416 22.7812 119.649 22.7146 119.933 22.6312L119.633 24.8812C119.349 25.0479 118.991 25.1729 118.558 25.2563C118.141 25.3563 117.724 25.4063 117.308 25.4063C116.091 25.4063 115.199 25.1146 114.633 24.5312C114.083 23.9312 113.808 22.9812 113.808 21.6812V7.18125H117.233ZM134.696 8.65625C137.279 8.65625 139.288 9.37292 140.721 10.8062C142.171 12.2229 142.896 14.2562 142.896 16.9062C142.896 19.5562 142.171 21.5979 140.721 23.0312C139.288 24.4479 137.279 25.1562 134.696 25.1562H128.871V8.65625H134.696ZM134.696 22.8812C136.446 22.8812 137.779 22.3646 138.696 21.3312C139.629 20.2812 140.096 18.8062 140.096 16.9062C140.096 15.0062 139.629 13.5396 138.696 12.5062C137.779 11.4562 136.446 10.9312 134.696 10.9312H131.546V22.8812H134.696ZM151.114 25.4063C149.864 25.4063 148.764 25.1479 147.814 24.6312C146.864 24.1146 146.122 23.3729 145.589 22.4062C145.072 21.4229 144.814 20.2562 144.814 18.9062C144.814 17.5562 145.072 16.3979 145.589 15.4312C146.122 14.4479 146.856 13.6979 147.789 13.1812C148.722 12.6646 149.781 12.4062 150.964 12.4062C152.181 12.4062 153.214 12.6562 154.064 13.1562C154.914 13.6562 155.564 14.3396 156.014 15.2062C156.464 16.0729 156.689 17.0562 156.689 18.1562C156.689 18.4562 156.681 18.7396 156.664 19.0062C156.647 19.2729 156.622 19.5062 156.589 19.7062H146.539V17.6562H155.414L154.089 18.0562C154.089 16.9229 153.806 16.0562 153.239 15.4562C152.672 14.8396 151.897 14.5312 150.914 14.5312C150.197 14.5312 149.572 14.6979 149.039 15.0312C148.506 15.3646 148.097 15.8646 147.814 16.5312C147.531 17.1812 147.389 17.9812 147.389 18.9312C147.389 19.8646 147.539 20.6562 147.839 21.3062C148.139 21.9562 148.564 22.4479 149.114 22.7812C149.664 23.1146 150.314 23.2812 151.064 23.2812C151.897 23.2812 152.572 23.1229 153.089 22.8062C153.606 22.4896 154.014 22.0479 154.314 21.4813L156.439 22.4812C156.139 23.0812 155.731 23.6062 155.214 24.0562C154.714 24.4896 154.114 24.8229 153.414 25.0562C152.714 25.2896 151.947 25.4063 151.114 25.4063ZM164.592 12.4062C165.592 12.4062 166.442 12.5562 167.142 12.8562C167.859 13.1396 168.459 13.5479 168.942 14.0812C169.426 14.6146 169.792 15.2229 170.042 15.9062L167.517 16.9062C167.301 16.1396 166.951 15.5562 166.467 15.1562C166.001 14.7396 165.384 14.5312 164.617 14.5312C163.867 14.5312 163.226 14.7062 162.692 15.0562C162.159 15.3896 161.751 15.8812 161.467 16.5312C161.201 17.1812 161.067 17.9812 161.067 18.9312C161.067 19.8646 161.209 20.6562 161.492 21.3062C161.776 21.9562 162.184 22.4479 162.717 22.7812C163.251 23.1146 163.884 23.2812 164.617 23.2812C165.184 23.2812 165.676 23.1896 166.092 23.0062C166.509 22.8062 166.851 22.5312 167.117 22.1812C167.401 21.8146 167.592 21.3729 167.692 20.8562L170.117 21.6812C169.884 22.4312 169.517 23.0896 169.017 23.6562C168.534 24.2062 167.926 24.6396 167.192 24.9562C166.459 25.2563 165.617 25.4063 164.667 25.4063C163.434 25.4063 162.342 25.1479 161.392 24.6312C160.442 24.1146 159.701 23.3729 159.167 22.4062C158.651 21.4229 158.392 20.2562 158.392 18.9062C158.392 17.5562 158.651 16.3979 159.167 15.4312C159.701 14.4479 160.434 13.6979 161.367 13.1812C162.317 12.6646 163.392 12.4062 164.592 12.4062ZM184.155 12.6562L178.58 18.3562L178.005 18.7562L174.08 22.8312L174.055 19.7812L180.98 12.6562H184.155ZM175.03 7.03125V25.1562H172.355V7.03125H175.03ZM178.905 16.8562L184.455 25.1562H181.355L176.905 18.3812L178.905 16.8562Z" fill="white"/>
</svg>