<svg width="186" height="33" viewBox="0 0 186 33" fill="none" xmlns="http://www.w3.org/2000/svg">
<path d="M13.5461 15.8812C16.1216 15.1842 18.6972 14.4873 21.4558 13.7407C20.3483 16.3427 19.2976 18.8105 18.2469 21.2783C18.17 21.3242 18.0931 21.3684 18.018 21.4143C17.4909 18.7645 16.1143 16.8723 13.4033 16.1736C13.4509 16.0761 13.4985 15.9786 13.5461 15.8812Z" fill="#ED6774"/>
<path d="M33.1346 16.6554C33.1346 23.4518 27.6503 28.963 20.8848 28.963V23.827C24.8259 23.827 28.0219 20.6163 28.0219 16.6554C28.0219 12.6963 24.8259 9.48559 20.8848 9.48559V4.34961C27.6503 4.34961 33.1346 9.85888 33.1346 16.6554Z" fill="#1D9BF0"/>
<path d="M7.67027 16.6552C7.67027 21.8262 11.8438 26.0169 16.9894 26.0169V32.7215C8.15719 32.7215 0.998047 25.5278 0.998047 16.6552C0.998047 7.78266 8.15719 0.59082 16.9894 0.59082V7.29536C11.8438 7.29536 7.67027 11.4862 7.67027 16.6552Z" fill="#00D1FF"/>
<path d="M54.9938 20.6062C54.6771 21.6729 54.1771 22.5646 53.4938 23.2812C52.8104 23.9979 52.0021 24.5312 51.0688 24.8812C50.1354 25.2313 49.1104 25.4063 47.9938 25.4063C46.3604 25.4063 44.9438 25.0646 43.7438 24.3812C42.5604 23.6979 41.6438 22.7229 40.9938 21.4562C40.3604 20.1896 40.0438 18.6729 40.0438 16.9062C40.0438 15.1396 40.3604 13.6229 40.9938 12.3562C41.6438 11.0896 42.5604 10.1146 43.7438 9.43125C44.9438 8.74792 46.3438 8.40625 47.9438 8.40625C49.0771 8.40625 50.1021 8.56458 51.0188 8.88125C51.9354 9.18125 52.7104 9.64792 53.3438 10.2812C53.9938 10.9146 54.4688 11.7146 54.7688 12.6812L51.6438 14.0062C51.3604 13.0062 50.9271 12.2979 50.3438 11.8812C49.7604 11.4479 49.0104 11.2312 48.0938 11.2312C47.1938 11.2312 46.4021 11.4479 45.7188 11.8812C45.0521 12.3146 44.5354 12.9562 44.1688 13.8062C43.8021 14.6396 43.6188 15.6729 43.6188 16.9062C43.6188 18.1229 43.7854 19.1562 44.1188 20.0062C44.4688 20.8562 44.9771 21.4979 45.6438 21.9312C46.3104 22.3646 47.1271 22.5812 48.0938 22.5812C48.9938 22.5812 49.7688 22.3396 50.4188 21.8563C51.0854 21.3729 51.5521 20.6396 51.8188 19.6562L54.9938 20.6062ZM63.8342 17.1812C63.8342 16.4646 63.6258 15.9062 63.2092 15.5062C62.8092 15.1062 62.2758 14.9062 61.6092 14.9062C60.9925 14.9062 60.4508 15.0646 59.9842 15.3812C59.5175 15.6979 59.1758 16.2229 58.9592 16.9562L56.0342 16.0562C56.3175 14.9562 56.9342 14.0729 57.8842 13.4062C58.8508 12.7396 60.1425 12.4062 61.7592 12.4062C62.8592 12.4062 63.8175 12.5812 64.6342 12.9312C65.4508 13.2646 66.0842 13.7729 66.5342 14.4562C67.0008 15.1396 67.2342 15.9979 67.2342 17.0312V22.1062C67.2342 22.7396 67.5342 23.0562 68.1342 23.0562C68.4175 23.0562 68.6842 23.0146 68.9342 22.9312L68.7342 25.0562C68.3008 25.2729 67.7592 25.3813 67.1092 25.3813C66.5258 25.3813 66.0008 25.2813 65.5342 25.0812C65.0675 24.8812 64.7008 24.5812 64.4342 24.1812C64.1675 23.7646 64.0342 23.2479 64.0342 22.6312V22.5312L64.6342 22.4312C64.5342 23.0646 64.2592 23.6062 63.8092 24.0562C63.3592 24.4896 62.8092 24.8229 62.1592 25.0562C61.5258 25.2896 60.8675 25.4063 60.1842 25.4063C59.3342 25.4063 58.6008 25.2813 57.9842 25.0312C57.3675 24.7646 56.8925 24.3812 56.5592 23.8812C56.2258 23.3812 56.0592 22.7646 56.0592 22.0312C56.0592 21.0979 56.3592 20.3396 56.9592 19.7562C57.5592 19.1562 58.4175 18.7479 59.5342 18.5312L64.2342 17.5812L64.2092 19.7062L61.2092 20.3062C60.6425 20.4229 60.2092 20.5812 59.9092 20.7812C59.6258 20.9646 59.4842 21.2729 59.4842 21.7062C59.4842 22.1229 59.6342 22.4396 59.9342 22.6562C60.2508 22.8729 60.6258 22.9812 61.0592 22.9812C61.4092 22.9812 61.7508 22.9396 62.0842 22.8562C62.4175 22.7729 62.7175 22.6396 62.9842 22.4562C63.2508 22.2729 63.4592 22.0229 63.6092 21.7062C63.7592 21.3896 63.8342 21.0062 63.8342 20.5562V17.1812ZM70.1896 30.4063V12.6562H73.2646L73.4896 16.6312L73.0646 16.1812C73.2146 15.4479 73.4896 14.7979 73.8896 14.2312C74.3063 13.6646 74.8313 13.2229 75.4646 12.9062C76.098 12.5729 76.8063 12.4062 77.5896 12.4062C78.6063 12.4062 79.5146 12.6646 80.3146 13.1812C81.1146 13.6979 81.7396 14.4396 82.1896 15.4062C82.6563 16.3562 82.8896 17.5146 82.8896 18.8812C82.8896 20.2479 82.6563 21.4229 82.1896 22.4062C81.723 23.3729 81.0813 24.1146 80.2646 24.6312C79.4646 25.1479 78.548 25.4063 77.5146 25.4063C76.4146 25.4063 75.498 25.0979 74.7646 24.4812C74.048 23.8646 73.5563 23.0896 73.2896 22.1562L73.6146 21.6312V30.4063H70.1896ZM76.5146 22.7812C77.4313 22.7812 78.148 22.4562 78.6646 21.8062C79.198 21.1396 79.4646 20.1729 79.4646 18.9062C79.4646 17.6396 79.2063 16.6812 78.6896 16.0312C78.1896 15.3646 77.4813 15.0312 76.5646 15.0312C75.9813 15.0312 75.4646 15.1896 75.0146 15.5062C74.5813 15.8062 74.2396 16.2479 73.9896 16.8312C73.7396 17.3979 73.6146 18.0896 73.6146 18.9062C73.6146 19.7062 73.7313 20.3979 73.9646 20.9812C74.198 21.5646 74.5313 22.0146 74.9646 22.3312C75.4146 22.6312 75.9313 22.7812 76.5146 22.7812ZM86.7135 10.8562C85.9968 10.8562 85.4635 10.7062 85.1135 10.4062C84.7635 10.0896 84.5885 9.63125 84.5885 9.03125C84.5885 8.41458 84.7635 7.95625 85.1135 7.65625C85.4635 7.33958 85.9968 7.18125 86.7135 7.18125C87.4301 7.18125 87.9635 7.33958 88.3135 7.65625C88.6635 7.95625 88.8385 8.41458 88.8385 9.03125C88.8385 9.63125 88.6635 10.0896 88.3135 10.4062C87.9635 10.7062 87.4301 10.8562 86.7135 10.8562ZM88.4135 12.6562V25.1562H84.9885V12.6562H88.4135ZM95.5941 8.83125V21.0812C95.5941 21.6812 95.7441 22.1229 96.0441 22.4062C96.3608 22.6729 96.7858 22.8062 97.3191 22.8062C97.7358 22.8062 98.1025 22.7479 98.4191 22.6312C98.7358 22.4979 99.0191 22.3229 99.2691 22.1062L99.8191 24.3812C99.4191 24.6979 98.9191 24.9479 98.3191 25.1312C97.7191 25.3146 97.0858 25.4063 96.4191 25.4063C95.5858 25.4063 94.8441 25.2813 94.1941 25.0312C93.5608 24.7812 93.0608 24.3812 92.6941 23.8312C92.3441 23.2812 92.1691 22.5479 92.1691 21.6312V9.78125L95.5941 8.83125ZM99.5941 12.6562V15.2062H89.8691V12.6562H99.5941ZM108.283 17.1812C108.283 16.4646 108.075 15.9062 107.658 15.5062C107.258 15.1062 106.725 14.9062 106.058 14.9062C105.442 14.9062 104.9 15.0646 104.433 15.3812C103.967 15.6979 103.625 16.2229 103.408 16.9562L100.483 16.0562C100.767 14.9562 101.383 14.0729 102.333 13.4062C103.3 12.7396 104.592 12.4062 106.208 12.4062C107.308 12.4062 108.267 12.5812 109.083 12.9312C109.9 13.2646 110.533 13.7729 110.983 14.4562C111.45 15.1396 111.683 15.9979 111.683 17.0312V22.1062C111.683 22.7396 111.983 23.0562 112.583 23.0562C112.867 23.0562 113.133 23.0146 113.383 22.9312L113.183 25.0562C112.75 25.2729 112.208 25.3813 111.558 25.3813C110.975 25.3813 110.45 25.2813 109.983 25.0812C109.517 24.8812 109.15 24.5812 108.883 24.1812C108.617 23.7646 108.483 23.2479 108.483 22.6312V22.5312L109.083 22.4312C108.983 23.0646 108.708 23.6062 108.258 24.0562C107.808 24.4896 107.258 24.8229 106.608 25.0562C105.975 25.2896 105.317 25.4063 104.633 25.4063C103.783 25.4063 103.05 25.2813 102.433 25.0312C101.817 24.7646 101.342 24.3812 101.008 23.8812C100.675 23.3812 100.508 22.7646 100.508 22.0312C100.508 21.0979 100.808 20.3396 101.408 19.7562C102.008 19.1562 102.867 18.7479 103.983 18.5312L108.683 17.5812L108.658 19.7062L105.658 20.3062C105.092 20.4229 104.658 20.5812 104.358 20.7812C104.075 20.9646 103.933 21.2729 103.933 21.7062C103.933 22.1229 104.083 22.4396 104.383 22.6562C104.7 22.8729 105.075 22.9812 105.508 22.9812C105.858 22.9812 106.2 22.9396 106.533 22.8562C106.867 22.7729 107.167 22.6396 107.433 22.4562C107.7 22.2729 107.908 22.0229 108.058 21.7062C108.208 21.3896 108.283 21.0062 108.283 20.5562V17.1812ZM118.014 7.18125V21.3062C118.014 21.8896 118.114 22.2979 118.314 22.5312C118.514 22.7646 118.847 22.8812 119.314 22.8812C119.597 22.8812 119.831 22.8646 120.014 22.8312C120.197 22.7812 120.431 22.7146 120.714 22.6312L120.414 24.8812C120.131 25.0479 119.772 25.1729 119.339 25.2563C118.922 25.3563 118.506 25.4063 118.089 25.4063C116.872 25.4063 115.981 25.1146 115.414 24.5312C114.864 23.9312 114.589 22.9812 114.589 21.6812V7.18125H118.014ZM135.477 8.65625C138.06 8.65625 140.069 9.37292 141.502 10.8062C142.952 12.2229 143.677 14.2562 143.677 16.9062C143.677 19.5562 142.952 21.5979 141.502 23.0312C140.069 24.4479 138.06 25.1562 135.477 25.1562H129.652V8.65625H135.477ZM135.477 22.8812C137.227 22.8812 138.56 22.3646 139.477 21.3312C140.41 20.2812 140.877 18.8062 140.877 16.9062C140.877 15.0062 140.41 13.5396 139.477 12.5062C138.56 11.4562 137.227 10.9312 135.477 10.9312H132.327V22.8812H135.477ZM151.895 25.4063C150.645 25.4063 149.545 25.1479 148.595 24.6312C147.645 24.1146 146.904 23.3729 146.37 22.4062C145.854 21.4229 145.595 20.2562 145.595 18.9062C145.595 17.5562 145.854 16.3979 146.37 15.4312C146.904 14.4479 147.637 13.6979 148.57 13.1812C149.504 12.6646 150.562 12.4062 151.745 12.4062C152.962 12.4062 153.995 12.6562 154.845 13.1562C155.695 13.6562 156.345 14.3396 156.795 15.2062C157.245 16.0729 157.47 17.0562 157.47 18.1562C157.47 18.4562 157.462 18.7396 157.445 19.0062C157.429 19.2729 157.404 19.5062 157.37 19.7062H147.32V17.6562H156.195L154.87 18.0562C154.87 16.9229 154.587 16.0562 154.02 15.4562C153.454 14.8396 152.679 14.5312 151.695 14.5312C150.979 14.5312 150.354 14.6979 149.82 15.0312C149.287 15.3646 148.879 15.8646 148.595 16.5312C148.312 17.1812 148.17 17.9812 148.17 18.9312C148.17 19.8646 148.32 20.6562 148.62 21.3062C148.92 21.9562 149.345 22.4479 149.895 22.7812C150.445 23.1146 151.095 23.2812 151.845 23.2812C152.679 23.2812 153.354 23.1229 153.87 22.8062C154.387 22.4896 154.795 22.0479 155.095 21.4813L157.22 22.4812C156.92 23.0812 156.512 23.6062 155.995 24.0562C155.495 24.4896 154.895 24.8229 154.195 25.0562C153.495 25.2896 152.729 25.4063 151.895 25.4063ZM165.373 12.4062C166.373 12.4062 167.223 12.5562 167.923 12.8562C168.64 13.1396 169.24 13.5479 169.723 14.0812C170.207 14.6146 170.573 15.2229 170.823 15.9062L168.298 16.9062C168.082 16.1396 167.732 15.5562 167.248 15.1562C166.782 14.7396 166.165 14.5312 165.398 14.5312C164.648 14.5312 164.007 14.7062 163.473 15.0562C162.94 15.3896 162.532 15.8812 162.248 16.5312C161.982 17.1812 161.848 17.9812 161.848 18.9312C161.848 19.8646 161.99 20.6562 162.273 21.3062C162.557 21.9562 162.965 22.4479 163.498 22.7812C164.032 23.1146 164.665 23.2812 165.398 23.2812C165.965 23.2812 166.457 23.1896 166.873 23.0062C167.29 22.8062 167.632 22.5312 167.898 22.1812C168.182 21.8146 168.373 21.3729 168.473 20.8562L170.898 21.6812C170.665 22.4312 170.298 23.0896 169.798 23.6562C169.315 24.2062 168.707 24.6396 167.973 24.9562C167.24 25.2563 166.398 25.4063 165.448 25.4063C164.215 25.4063 163.123 25.1479 162.173 24.6312C161.223 24.1146 160.482 23.3729 159.948 22.4062C159.432 21.4229 159.173 20.2562 159.173 18.9062C159.173 17.5562 159.432 16.3979 159.948 15.4312C160.482 14.4479 161.215 13.6979 162.148 13.1812C163.098 12.6646 164.173 12.4062 165.373 12.4062ZM184.937 12.6562L179.362 18.3562L178.787 18.7562L174.862 22.8312L174.837 19.7812L181.762 12.6562H184.937ZM175.812 7.03125V25.1562H173.137V7.03125H175.812ZM179.687 16.8562L185.237 25.1562H182.137L177.687 18.3812L179.687 16.8562Z" fill="#093E74"/>
</svg>
