<svg width="26" height="26" viewBox="0 0 26 26" fill="none" xmlns="http://www.w3.org/2000/svg">
<circle cx="12.707" cy="12.8628" r="12.5" fill="url(#paint0_radial_2_536)"/>
<circle cx="12.707" cy="12.8628" r="12.5" fill="url(#paint1_radial_2_536)"/>
<path d="M12.7041 6.71275C14.7082 6.71275 14.9434 6.72168 15.7355 6.75741C16.468 6.79017 16.8641 6.91226 17.1291 7.01648C17.4805 7.15345 17.7306 7.31425 17.9926 7.5763C18.2547 7.83834 18.4185 8.08847 18.5525 8.43985C18.6537 8.70487 18.7788 9.10091 18.8115 9.83344C18.8473 10.6255 18.8562 10.8608 18.8562 12.8648C18.8562 14.8688 18.8473 15.1041 18.8115 15.8962C18.7788 16.6287 18.6567 17.0247 18.5525 17.2898C18.4155 17.6411 18.2547 17.8913 17.9926 18.1533C17.7306 18.4154 17.4805 18.5791 17.1291 18.7131C16.8641 18.8144 16.468 18.9395 15.7355 18.9722C14.9434 19.0079 14.7082 19.0169 12.7041 19.0169C10.7001 19.0169 10.4648 19.0079 9.67275 18.9722C8.94022 18.9395 8.54418 18.8174 8.27916 18.7131C7.92778 18.5762 7.67765 18.4154 7.41561 18.1533C7.15356 17.8913 6.98979 17.6411 6.85579 17.2898C6.75454 17.0247 6.62948 16.6287 6.59672 15.8962C6.56099 15.1041 6.55205 14.8688 6.55205 12.8648C6.55205 10.8608 6.56099 10.6255 6.59672 9.83344C6.62948 9.10091 6.75156 8.70487 6.85579 8.43985C6.99276 8.08847 7.15356 7.83834 7.41561 7.5763C7.67765 7.31425 7.92778 7.15048 8.27916 7.01648C8.54418 6.91523 8.94022 6.79017 9.67275 6.75741C10.4648 6.7187 10.7031 6.71275 12.7041 6.71275ZM12.7041 5.36084C10.6673 5.36084 10.4112 5.36977 9.61022 5.40551C8.81218 5.44124 8.26725 5.56928 7.79081 5.7539C7.2965 5.94448 6.87961 6.20355 6.46272 6.62043C6.04583 7.03732 5.78975 7.45719 5.59619 7.94852C5.41157 8.42496 5.28352 8.96989 5.24779 9.77091C5.21206 10.569 5.20312 10.825 5.20312 12.8618C5.20312 14.8986 5.21206 15.1547 5.24779 15.9557C5.28352 16.7538 5.41157 17.2987 5.59619 17.7781C5.78677 18.2724 6.04583 18.6893 6.46272 19.1062C6.87961 19.5231 7.29947 19.7792 7.79081 19.9727C8.26725 20.1574 8.81218 20.2854 9.6132 20.3211C10.4142 20.3569 10.6673 20.3658 12.7071 20.3658C14.7469 20.3658 15 20.3569 15.801 20.3211C16.599 20.2854 17.144 20.1574 17.6234 19.9727C18.1177 19.7822 18.5346 19.5231 18.9515 19.1062C19.3684 18.6893 19.6245 18.2695 19.818 17.7781C20.0026 17.3017 20.1307 16.7567 20.1664 15.9557C20.2021 15.1547 20.2111 14.9016 20.2111 12.8618C20.2111 10.8221 20.2021 10.569 20.1664 9.76793C20.1307 8.96989 20.0026 8.42496 19.818 7.94554C19.6274 7.45123 19.3684 7.03434 18.9515 6.61746C18.5346 6.20057 18.1147 5.94448 17.6234 5.75093C17.147 5.56631 16.602 5.43826 15.801 5.40253C14.997 5.36977 14.7409 5.36084 12.7041 5.36084Z" fill="white"/>
<path d="M12.7043 9.01123C10.5782 9.01123 8.85107 10.7354 8.85107 12.8645C8.85107 14.9936 10.5752 16.7177 12.7043 16.7177C14.8334 16.7177 16.5575 14.9936 16.5575 12.8645C16.5575 10.7354 14.8334 9.01123 12.7043 9.01123ZM12.7043 15.3628C11.3226 15.3628 10.203 14.2432 10.203 12.8615C10.203 11.4798 11.3226 10.3602 12.7043 10.3602C14.086 10.3602 15.2056 11.4798 15.2056 12.8615C15.2056 14.2432 14.086 15.3628 12.7043 15.3628Z" fill="white"/>
<path d="M16.7089 9.75511C17.2055 9.75511 17.6081 9.35249 17.6081 8.85583C17.6081 8.35917 17.2055 7.95654 16.7089 7.95654C16.2122 7.95654 15.8096 8.35917 15.8096 8.85583C15.8096 9.35249 16.2122 9.75511 16.7089 9.75511Z" fill="white"/>
<defs>
<radialGradient id="paint0_radial_2_536" cx="0" cy="0" r="1" gradientUnits="userSpaceOnUse" gradientTransform="translate(21.332 28.7378) rotate(-105.945) scale(32.7605 48.7275)">
<stop offset="0.197635" stop-color="#F50B5E"/>
<stop offset="0.52034" stop-color="#DF0897"/>
<stop offset="0.768785" stop-color="#962FBF"/>
<stop offset="0.933441" stop-color="#4F5BD5"/>
</radialGradient>
<radialGradient id="paint1_radial_2_536" cx="0" cy="0" r="1" gradientUnits="userSpaceOnUse" gradientTransform="translate(8.58203 25.3628) rotate(-54.9721) scale(16.3334 17.8656)">
<stop offset="0.09375" stop-color="#FEDA75"/>
<stop offset="0.475046" stop-color="#FA7E1E"/>
<stop offset="1" stop-color="#FA7E1E" stop-opacity="0"/>
</radialGradient>
</defs>
</svg>