<svg width="105" height="105" viewBox="0 0 105 105" fill="none" xmlns="http://www.w3.org/2000/svg">
<circle cx="52.5" cy="52.5" r="52.5" fill="#FFFBFB"/>
<path fill-rule="evenodd" clip-rule="evenodd" d="M28.856 52.3945C28.9078 49.4606 28.9651 46.468 29.3987 43.5626C29.8227 40.7222 30.989 38.1548 32.9932 36.0922C37.2503 31.711 43.421 30.6408 49.1649 29.6602L58.9854 27.9834C61.9815 27.472 65.1778 26.6545 68.2049 27.3798C69.6964 27.7372 70.9632 28.5675 72.1209 29.5499C73.2368 30.4968 74.4366 31.5136 75.1927 32.7875C75.9502 34.0632 76.2107 35.5546 76.4569 36.9974C76.7347 38.6241 76.9504 40.2636 77.1037 41.9069C77.4109 45.1994 77.4528 48.5167 77.23 51.816C77.1221 53.4163 76.9503 55.012 76.731 56.6006C76.6223 57.3883 76.4994 58.1741 76.3606 58.9572C76.3197 59.1881 76.2886 59.4437 76.2467 59.702C76.5564 60.5881 76.7325 61.5058 76.7183 62.4195C76.6765 65.1112 74.4177 66.8057 72.1405 67.7156C70.8202 68.2431 69.4398 68.6016 68.1425 69.1909C66.7777 69.8108 65.8488 70.8157 64.9157 71.962C63.1361 74.1484 61.1278 76.1134 58.8347 77.7528C53.9728 81.2288 47.8148 82.8728 41.9156 81.625C40.5002 81.3256 39.0723 80.8607 37.8 80.1601C36.4567 79.4206 35.4467 78.3489 34.5985 77.0818C33.0236 74.7295 31.8941 72.0807 31.0396 69.3853C30.1681 66.6357 29.5495 63.8813 29.2121 61.0143C28.8759 58.1566 28.8051 55.2698 28.856 52.3945Z" fill="#D08B5B"/>
<path fill-rule="evenodd" clip-rule="evenodd" d="M60.1942 17.7632C56.1302 17.2009 50.5211 19.0283 48.4972 22.7129C38.8347 20.4218 26.6477 20.3468 18.6838 27.9738C10.3737 37.0213 20.8116 48.9503 27.7327 51.6398C27.2288 54.1029 28.0145 69.8824 33.5739 76.9209C37.9861 82.8846 48.2607 85.6369 53.0152 78.5137L53.0523 78.455C53.5616 77.6323 53.1229 77.6587 52.6001 78.2707C47.9444 82.3885 41.6144 82.4588 36.7365 78.1131C27.5946 70.17 28.5372 50.694 32.8873 39.4268C45.2744 38.0585 58.5371 41.8347 67.0927 51.213L66.5142 54.7161C66.4156 55.3129 66.3036 55.9092 66.2182 56.5081C66.1635 56.8919 66.1574 57.2735 66.4217 57.5841C67.2945 58.6096 68.7655 57.0687 69.9759 56.4557C70.3332 56.4052 70.6911 56.3857 71.0422 56.4106C76.8572 57.1639 75.7115 68.5095 69.3204 66.5208C68.7834 66.1843 68.322 66.287 68.1137 66.7752C66.5903 68.1787 65.5859 70.6817 63.0549 73.0925C62.1619 73.9968 61.3493 74.7534 60.3448 75.4789C59.7548 76.0789 57.9746 76.6908 58.5389 77.7177C59.6061 80.0544 65.8994 72.7144 67.0121 70.6846C70.4983 72.0691 74.3617 71.5988 77.9744 71.2604C97.0336 70.2638 94.4893 50.057 78.8669 37.2994C75.9262 35.122 72.6817 33.3457 69.309 31.9788C68.8486 31.7922 69.0498 31.0318 69.5167 31.221C71.7483 32.1256 73.9238 33.2023 75.9975 34.4484L76.0007 33.7034C76.0037 32.4486 75.9841 31.1422 75.7674 29.9957C75.6591 29.2013 75.4769 28.3527 75.1965 27.7144C74.8497 25.7574 69.4179 19.0398 60.1942 17.7632ZM71.2965 59.0153C71.0022 58.7341 70.4529 59.0694 70.1909 59.061C69.5209 59.1532 68.8845 59.4378 68.3881 59.789C68.0604 59.9737 67.8307 60.1471 67.6387 60.3066L67.6335 60.3052C67.635 60.3052 67.6368 60.3066 67.6383 60.307L67.6203 60.3193C67.3408 60.519 66.3177 61.6439 66.9641 61.3414C67.0123 61.2784 67.0616 61.2179 67.1114 61.1586C67.1167 61.1667 67.1241 61.1747 67.133 61.1824L67.0967 61.2366C66.5473 62.0678 67.4958 61.1921 67.6417 60.9595C67.6486 60.9651 67.6564 60.9689 67.6641 60.973L67.4741 61.2056C67.4475 61.2386 67.4266 61.265 67.4093 61.2873L67.3692 61.3262C66.734 61.9542 66.7142 62.5193 67.4521 61.5909C67.4231 61.6346 67.3998 61.681 67.3965 61.7221L67.3528 61.7782C66.7734 62.5291 67.2447 62.2624 67.5326 61.9417L67.5567 61.9141L67.5517 61.9216C67.2839 62.3366 67.8153 62.0454 67.9093 61.8234L67.9132 61.8134C68.0155 61.7294 68.0785 61.6352 68.1001 61.6114L68.1041 61.6074C68.6023 61.094 69.3245 60.6596 69.9379 60.4622C70.0268 60.4452 70.1168 60.4316 70.2077 60.4219C70.5766 60.3391 70.9495 60.2824 71.3263 60.2518C71.3724 60.2463 71.4192 60.2122 71.4541 60.1682C72.0239 60.1489 71.848 59.9139 71.6116 59.8703L71.6075 59.8696L71.6544 59.8656C72.0201 59.8297 72.2698 59.6978 71.9 59.6168L71.8532 59.6074C71.8589 59.5984 71.864 59.5893 71.8689 59.5803C72.1856 59.5453 71.979 59.2357 71.8032 59.3106C71.8771 59.0674 71.5391 59.1888 71.4969 59.1527C71.4648 59.1168 71.4248 59.0851 71.4017 59.0834C71.2999 59.0111 71.3493 59.0177 71.2965 59.0153ZM69.3589 55.0777L69.4331 55.1213C69.4932 55.1566 69.5549 55.18 69.6169 55.1938C69.5294 55.2312 69.4429 55.2717 69.3573 55.3149C69.3587 55.2621 69.3597 55.2093 69.3597 55.1566L69.3589 55.0777Z" fill="black"/>
<path fill-rule="evenodd" clip-rule="evenodd" d="M51.9489 72.0393C50.8925 69.5553 48.5867 67.7296 45.9319 67.0622C43.9824 66.5733 41.9365 66.5889 39.9492 66.7829C38.9079 66.8838 37.7912 66.9666 36.8099 67.3547C35.972 67.6862 35.2891 68.3129 34.7757 69.0485C34.1645 69.9203 33.7488 70.918 33.4569 71.9406C33.4155 72.086 33.3765 72.2325 33.3401 72.3797C33.4671 73.1513 33.7365 73.808 34.4486 74.2931C35.1434 74.7668 35.9725 74.9605 36.7989 75.0294C36.88 74.9903 36.9583 74.9502 37.0301 74.909C38.318 74.169 39.2245 72.4203 40.85 72.657C42.3007 72.8683 43.2556 74.7003 44.1183 75.7746C46.8875 76.0984 49.6546 75.2633 51.9077 73.674C52.0222 73.13 52.0288 72.5815 51.9489 72.0393ZM31.458 70.155C31.6795 69.531 31.9585 68.9267 32.2893 68.3575C33.3826 66.4749 35.0611 64.9749 37.0536 64.1175C41.767 62.0919 47.8658 63.5198 51.6723 66.8419C52.9725 67.9775 54.2873 69.6464 54.6849 71.4415C54.8036 71.4651 54.9157 71.5271 55.0079 71.6144C57.7581 69.8766 60.5902 68.2046 62.8063 65.7957C64.4157 64.0454 65.5351 61.974 66.2206 59.6979C66.2766 59.5106 66.5776 59.538 66.5685 59.7452C66.5659 59.7937 66.5633 59.8421 66.5607 59.8906C66.5894 59.8015 66.7249 59.8474 66.7353 59.9339C67.1041 62.6989 67.5654 65.6305 67.1406 68.4099C66.8865 70.0684 66.1359 71.2826 65.1324 72.5937C64.0574 73.999 62.8402 75.3061 61.5957 76.5596C60.806 77.3553 59.9811 78.2731 59.0142 78.8565C57.8896 79.5343 56.6138 80.0497 55.4136 80.5727C54.1925 81.1063 52.9532 81.5992 51.6905 82.0266C49.1663 82.8841 46.5574 83.4767 43.9029 83.7363C41.7775 83.9434 39.3484 84.169 37.3116 83.3665C35.7504 82.7517 34.4903 81.64 33.4908 80.3026C32.4026 78.846 31.5424 77.1868 31.0669 75.4372C30.5728 73.6198 31.3539 70.448 31.458 70.155Z" fill="black"/>
<path fill-rule="evenodd" clip-rule="evenodd" d="M40.2944 71.1183C41.2556 71.3977 42.2874 71.4227 43.2673 71.1341C44.156 70.8723 45.0685 70.2963 45.7226 69.534C46.3037 68.8568 46.68 68.0339 46.6652 67.1555C46.6635 67.0552 46.6278 66.9714 46.5728 66.9065C46.5136 66.8365 46.4309 66.7884 46.3424 66.7676C46.2513 66.7461 46.155 66.7537 46.073 66.7911C45.9988 66.8249 45.9352 66.8824 45.8955 66.9664C45.7949 67.099 45.6948 67.2295 45.5943 67.3565C44.7861 68.3581 44.0033 69.1067 42.788 69.3752C42.1286 69.5209 41.47 69.4563 40.8657 69.234C40.2189 68.996 39.6341 68.5776 39.1759 68.0422C38.9689 67.8002 38.7244 67.7015 38.4853 67.6998C38.2144 67.6979 37.9467 67.8243 37.745 68.0262C37.5467 68.2247 37.4139 68.4944 37.4019 68.7766C37.3913 69.0242 37.4718 69.2829 37.6859 69.5137C38.3913 70.2739 39.3053 70.8308 40.2944 71.1183ZM40.3241 58.5728C39.3387 59.1739 37.8373 60.5757 38.8973 62.066C40.1451 63.38 41.9416 61.8734 42.8268 61.192C43.6477 60.6639 44.57 62.0221 43.8084 62.6387C37.4114 67.3922 34.8154 58.73 39.8257 57.866C40.3773 57.7708 40.5822 58.3868 40.3241 58.5728ZM49.5416 55.9277C49.8583 55.7244 50.2309 55.6546 50.6438 55.8431C50.9664 55.9904 51.5323 56.4813 51.9261 57.1267C52.1956 57.5682 52.3866 58.0862 52.3469 58.6257C52.3376 58.751 52.3838 58.8434 52.4565 58.9117C52.514 58.9656 52.597 59.0053 52.6945 59.0177C52.7772 59.0282 52.8699 59.0187 52.9452 58.9951C53.0885 58.9502 53.1644 58.8569 53.1929 58.7807C53.4687 58.0457 53.3499 57.2255 53.0409 56.4856C52.6238 55.4869 51.8664 54.6504 51.3701 54.3807C50.521 53.9191 49.5192 53.8978 48.6688 54.3681C47.9449 54.7684 47.4923 55.4147 47.0421 56.0735C46.9464 56.2135 46.8514 56.3525 46.7533 56.4891C46.5566 56.7627 46.537 57.0341 46.6132 57.2668C46.6976 57.5247 46.9128 57.7423 47.1819 57.8561C47.4306 57.9614 47.7193 57.9762 47.9747 57.868C48.1905 57.7767 48.3885 57.5986 48.5139 57.2965C48.7249 56.7876 49.0765 56.2262 49.5416 55.9277ZM33.457 57.0598C33.6739 57.1732 33.8435 57.2074 34.0842 57.135C34.2172 57.0949 34.3487 57.0181 34.4517 56.9147C34.5537 56.8123 34.6273 56.685 34.6559 56.5437C34.7263 56.195 34.9164 55.8686 35.1873 55.6559C35.4188 55.474 35.711 55.3776 36.0351 55.432C36.3849 55.4906 36.7181 55.7157 36.9476 55.9812C37.0243 56.07 37.0845 56.1709 37.1449 56.2711C37.258 56.4584 37.3679 56.6326 37.5239 56.7702C37.583 56.8226 37.6721 56.8588 37.7583 56.8588C37.7934 56.8588 37.829 56.8531 37.8629 56.8425C38.211 56.4918 38.278 56.2258 38.2668 55.9619C38.255 55.6852 38.1463 55.405 37.9706 55.1436C37.5586 54.5304 36.7763 54.0277 36.2484 53.9138C35.5254 53.7579 34.8075 53.9451 34.2318 54.3503C33.6395 54.7674 33.2006 55.4148 33.0638 56.1444C33.0308 56.3201 33.0448 56.5098 33.1115 56.6743C33.1767 56.835 33.2902 56.9726 33.457 57.0598ZM47.9472 49.3902C48.381 49.8144 48.8946 49.8801 49.4141 49.9386C49.7027 49.9714 49.9331 49.9978 50.1599 50.0492C50.7831 50.1904 51.3992 50.403 51.9613 50.7093C52.5488 51.0295 53.1891 51.4156 53.6497 51.9103C53.7593 52.028 53.8625 52.1515 53.9659 52.2753C54.0602 52.3882 54.151 52.4969 54.2468 52.6016C54.3567 52.722 54.4611 52.8481 54.5649 52.9739C54.6291 53.0801 54.6418 53.1062 54.6547 53.1334C54.6742 53.1742 54.6968 53.2199 54.7227 53.269C54.7581 53.3361 54.7995 53.4096 54.843 53.4763C54.9152 53.5981 54.954 53.6316 54.9875 53.6467C55.0431 53.6715 55.0958 53.6838 55.147 53.6771C55.1949 53.6709 55.2401 53.6478 55.2847 53.6099C55.5075 53.4211 55.5732 53.1111 55.5664 52.782C55.5562 52.2827 55.3727 51.7298 55.2035 51.3899C54.8102 50.6002 54.2647 49.7793 53.6088 49.1899C52.8603 48.5172 52.0414 48.0078 51.1009 47.6569C50.5164 47.4387 49.8396 47.2384 49.2028 47.2637C48.7445 47.2819 48.3069 47.4187 47.9455 47.7602C47.7236 47.9698 47.6171 48.268 47.6171 48.566C47.6171 48.8699 47.7278 49.1756 47.9472 49.3902ZM32.5746 53.2753C32.6022 53.3206 32.6404 53.3519 32.6829 53.3707C32.7274 53.3904 32.7771 53.3961 32.8249 53.388C32.8724 53.38 32.9175 53.3584 32.9534 53.3253C32.9877 53.2937 33.0138 53.2517 33.0255 53.2002C33.3136 51.9304 33.8729 50.9857 35.0667 50.3765C35.654 50.0768 36.3293 49.8863 36.9685 49.7345C37.1543 49.6904 37.3506 49.6618 37.5483 49.6328C38.1678 49.5421 38.7918 49.4381 39.1957 48.9355C39.4391 48.6327 39.5412 48.2455 39.4834 47.8914C39.4291 47.558 39.235 47.2523 38.8821 47.0691C38.0036 46.6132 36.9119 47.0605 36.0247 47.4416C35.9589 47.4699 35.8943 47.4976 35.8311 47.5244C34.9635 47.8919 34.1723 48.3771 33.5218 49.0709C33.0057 49.6214 32.5276 50.4351 32.335 51.2722C32.1748 51.9686 32.2125 52.6796 32.5746 53.2753Z" fill="black"/>
</svg>
