<svg width="26" height="26" viewBox="0 0 26 26" fill="none" xmlns="http://www.w3.org/2000/svg">
<rect x="0.207031" y="0.362793" width="25" height="25" rx="12.5" fill="#1D9BF0"/>
<path d="M10.4197 19.4565C15.9635 19.4565 18.9947 14.8628 18.9947 10.8815C18.9947 10.7503 18.9947 10.619 18.9885 10.494C19.576 10.069 20.0885 9.53779 20.4947 8.93154C19.9572 9.16904 19.376 9.33154 18.7635 9.40654C19.3885 9.03154 19.8635 8.44404 20.0885 7.73779C19.5072 8.08154 18.8635 8.33154 18.176 8.46904C17.626 7.88154 16.8447 7.51904 15.976 7.51904C14.3135 7.51904 12.9635 8.86904 12.9635 10.5315C12.9635 10.769 12.9885 11.0003 13.0447 11.219C10.5385 11.094 8.31973 9.89404 6.83223 8.06904C6.57598 8.51279 6.42598 9.03154 6.42598 9.58154C6.42598 10.6253 6.95723 11.5503 7.76973 12.0878C7.27598 12.0753 6.81348 11.9378 6.40723 11.7128C6.40723 11.7253 6.40723 11.7378 6.40723 11.7503C6.40723 13.2128 7.44473 14.4253 8.82598 14.7065C8.57598 14.7753 8.30723 14.8128 8.03223 14.8128C7.83848 14.8128 7.65098 14.794 7.46348 14.7565C7.84473 15.9565 8.95723 16.8253 10.276 16.8503C9.24473 17.6565 7.94473 18.1378 6.53223 18.1378C6.28848 18.1378 6.05098 18.1253 5.81348 18.094C7.13223 18.9565 8.71973 19.4565 10.4197 19.4565Z" fill="white"/>
</svg>